<?xml version="1.0" standalone="no"?>
<!DOCTYPE svg PUBLIC "-//W3C//DTD SVG 20010904//EN"
 "http://www.w3.org/TR/2001/REC-SVG-20010904/DTD/svg10.dtd">
<svg version="1.0" xmlns="http://www.w3.org/2000/svg"
 width="1080.000000pt" height="1080.000000pt" viewBox="0 0 1080.000000 1080.000000"
 preserveAspectRatio="xMidYMid meet">

<g transform="translate(0.000000,1080.000000) scale(0.100000,-0.100000)"
fill="#000000" stroke="none">
<path d="M4930 9314 c-19 -2 -84 -9 -144 -14 -591 -58 -1202 -297 -1688 -663
-992 -745 -1501 -1926 -1362 -3157 166 -1470 1279 -2683 2729 -2975 267 -54
338 -60 690 -60 351 0 426 7 690 60 685 138 1314 487 1800 998 255 267 435
526 600 862 310 629 416 1315 314 2018 -144 994 -724 1878 -1585 2418 -426
267 -910 435 -1434 499 -87 11 -547 21 -610 14z m695 -222 c364 -57 639 -144
970 -307 319 -156 591 -351 846 -605 208 -207 366 -408 505 -642 319 -539 468
-1116 451 -1753 -21 -758 -281 -1436 -775 -2017 l-75 -88 -66 0 c-36 0 -138 3
-225 7 l-159 6 51 23 c116 51 276 185 358 300 62 86 121 217 150 331 32 128
34 326 4 452 -44 183 -122 327 -248 462 -125 133 -275 223 -450 271 -63 17
-106 21 -237 21 -148 0 -167 -2 -250 -28 -108 -34 -155 -42 -155 -26 0 16 69
44 175 72 76 19 118 23 275 24 l185 2 17 34 c10 19 18 39 18 45 0 15 -82 24
-231 24 -143 0 -254 -17 -384 -59 l-90 -29 -21 24 c-23 27 -54 108 -54 139 0
12 33 57 73 102 129 146 175 252 164 383 -10 126 -76 238 -140 241 -43 2 24
17 83 18 58 2 79 12 98 48 29 53 3 162 -49 210 -13 12 -65 36 -114 54 -115 40
-181 74 -330 167 -203 126 -242 158 -289 231 -50 77 -68 95 -119 116 -43 18
-51 30 -208 337 -64 123 -137 250 -171 295 -91 121 -89 144 15 156 66 8 88 32
111 123 10 38 28 87 40 109 21 36 23 49 18 133 l-5 93 33 34 c30 31 32 38 28
84 -10 104 -88 217 -186 269 -117 63 -270 62 -420 0 -82 -34 -139 -83 -184
-160 -32 -52 -35 -84 -13 -116 12 -16 13 -27 5 -41 -5 -11 -10 -36 -10 -56 0
-30 8 -45 49 -86 49 -49 81 -115 81 -167 0 -16 -16 -41 -47 -72 -39 -39 -63
-52 -133 -75 -182 -59 -311 -154 -410 -302 -89 -134 -225 -428 -293 -638 -72
-220 -97 -383 -97 -640 l0 -181 40 -39 c22 -21 40 -44 40 -50 0 -6 -13 -19
-30 -28 -25 -15 -30 -24 -30 -59 0 -76 49 -140 129 -166 18 -7 68 -15 110 -18
l76 -6 52 -117 c28 -64 64 -146 79 -183 l27 -67 -36 -43 c-20 -24 -58 -67 -84
-96 l-48 -52 -100 49 c-55 28 -147 66 -205 85 l-105 36 138 0 c135 0 137 0
137 23 -1 12 -11 35 -23 50 l-23 28 -622 -8 c-537 -7 -624 -10 -632 -23 -14
-21 -12 -43 4 -66 12 -16 27 -19 96 -19 l82 0 30 -58 c17 -32 29 -59 27 -60
-59 -42 -151 -123 -209 -184 -179 -187 -310 -471 -239 -516 30 -19 50 3 106
119 93 194 215 360 323 439 49 36 80 40 80 12 0 -7 -12 -20 -27 -29 -42 -25
-190 -175 -241 -243 -58 -79 -92 -148 -135 -275 -66 -196 -69 -305 -11 -528
62 -242 238 -487 424 -592 125 -71 127 -69 -66 -70 l-170 0 -70 83 c-413 487
-662 1047 -749 1682 -23 166 -31 510 -16 687 53 621 268 1190 637 1681 502
668 1246 1122 2059 1257 213 35 276 39 585 35 236 -2 321 -7 425 -23z m-428
-188 c47 -18 95 -58 116 -93 31 -53 -1 -48 -52 7 -30 32 -71 62 -111 82 -60
29 -62 31 -25 24 22 -3 55 -12 72 -20z m-48 -95 c36 -17 60 -33 54 -36 -23 -8
-193 56 -193 74 0 13 75 -8 139 -38z m151 -209 c0 -11 -100 -11 -145 0 -21 5
-4 8 58 9 52 1 87 -3 87 -9z m-360 -92 c11 -12 20 -25 20 -29 0 -3 3 -21 6
-38 5 -26 3 -31 -12 -31 -41 1 -79 53 -68 95 8 31 27 32 54 3z m200 -10 c57
-31 58 -31 99 -15 63 26 71 23 71 -23 0 -33 -3 -40 -20 -40 -16 0 -20 -7 -20
-32 0 -23 -8 -39 -27 -55 -26 -21 -26 -24 -10 -33 9 -6 17 -22 17 -35 0 -52
-76 -56 -157 -9 -63 36 -66 48 -48 160 15 95 21 114 32 114 3 0 31 -14 63 -32z
m-192 -269 c13 -22 43 -54 68 -72 24 -17 44 -35 44 -39 0 -12 -45 -98 -63
-123 -15 -19 -16 -19 -52 19 -50 53 -88 132 -80 164 12 50 34 92 47 92 7 0 23
-18 36 -41z m-143 -180 c53 -76 56 -81 38 -94 -10 -8 -22 -13 -28 -12 -26 7
-95 187 -71 187 2 0 30 -36 61 -81z m-130 -41 c21 -40 56 -101 77 -135 44 -70
41 -69 123 -14 42 29 53 26 72 -15 16 -32 16 -36 2 -45 -20 -11 -43 -64 -36
-83 3 -7 18 -17 33 -20 35 -9 54 13 54 63 0 76 26 104 56 64 17 -25 26 -12 32
47 2 27 8 50 12 50 13 0 47 -45 88 -115 65 -113 232 -455 232 -475 0 -54 -56
-16 -118 80 -41 64 -48 70 -85 70 l-27 0 6 93 c5 73 3 96 -9 112 -21 27 -36
12 -93 -93 -99 -183 -211 -352 -233 -352 -4 0 -15 16 -24 35 -11 23 -24 35
-36 35 -11 0 -25 9 -31 20 -6 11 -8 20 -4 20 3 0 17 -9 31 -20 30 -24 70 -26
99 -5 30 21 57 82 49 112 -4 19 0 31 19 48 72 66 25 195 -71 195 -66 0 -114
-82 -83 -141 9 -16 5 -26 -22 -59 -18 -21 -36 -36 -39 -32 -4 4 -19 63 -34
132 -34 159 -60 222 -89 218 -17 -2 -22 -11 -24 -45 -3 -45 27 -245 57 -375
l18 -77 -69 -41 c-38 -23 -77 -40 -86 -38 -20 4 -21 38 -1 86 13 32 13 34 -14
54 -24 17 -27 26 -27 73 0 43 -7 67 -36 119 -39 71 -57 153 -58 256 -1 102 49
183 149 241 80 46 96 42 140 -43z m-413 -770 c26 -35 78 -95 116 -133 56 -58
70 -78 75 -113 8 -47 56 -109 92 -118 20 -5 23 -13 29 -96 7 -93 4 -110 -16
-90 -23 23 -27 11 -12 -39 9 -30 12 -55 7 -60 -17 -17 -168 -41 -268 -42 -79
-2 -107 2 -132 16 -60 32 -34 47 83 47 39 0 74 3 77 7 4 3 -22 24 -58 45 -72
43 -193 150 -177 156 6 2 46 -8 90 -22 43 -13 108 -28 143 -32 l64 -7 -52 42
c-98 79 -241 266 -220 288 4 3 29 -15 57 -41 63 -56 164 -119 186 -114 13 2 9
14 -22 57 -20 30 -49 82 -64 115 -29 64 -63 196 -51 196 4 0 28 -28 53 -62z
m913 -54 c68 -69 115 -124 115 -136 0 -57 97 -138 185 -154 22 -3 85 -26 141
-49 55 -24 163 -66 240 -94 205 -76 201 -74 129 -82 -33 -4 -106 -7 -162 -8
l-102 -1 -45 39 c-52 45 -49 44 -179 71 -54 11 -108 25 -120 31 -46 25 -381
255 -420 289 l-40 36 63 87 c35 48 68 87 72 87 5 0 60 -52 123 -116z m386 40
l30 -15 -50 -58 c-70 -81 -78 -86 -97 -71 -33 28 -36 49 -14 85 24 39 66 75
87 75 8 0 28 -7 44 -16z m-793 -40 c30 -21 28 -35 -13 -61 -19 -13 -53 -46
-76 -75 -23 -29 -45 -54 -49 -56 -10 -4 -50 61 -50 81 0 37 105 125 150 127 9
0 26 -7 38 -16z m1005 -169 c227 -147 375 -226 550 -289 43 -16 77 -50 63 -63
-2 -3 -26 3 -51 13 -41 15 -53 16 -98 4 l-51 -13 -30 35 c-45 52 -93 79 -256
146 -189 79 -258 109 -297 134 -29 17 -32 22 -22 41 17 32 51 67 65 67 7 0 64
-34 127 -75z m-788 -76 c280 -188 371 -236 508 -265 40 -8 82 -21 94 -30 41
-26 23 -85 -29 -97 -16 -4 -39 -10 -53 -13 -19 -5 -34 3 -72 36 -67 59 -151
106 -396 222 -220 104 -297 145 -297 157 0 10 48 73 62 83 7 4 18 8 23 8 6 0
78 -45 160 -101z m-197 -153 c37 -18 128 -59 202 -91 262 -112 316 -141 394
-216 l73 -69 74 0 73 0 63 62 63 63 118 4 117 3 -71 -55 c-39 -31 -76 -69 -83
-84 -13 -33 -9 -49 58 -206 23 -53 40 -101 36 -106 -10 -18 -321 -66 -330 -52
-2 3 -6 24 -10 46 -18 95 -81 164 -239 262 -127 79 -406 214 -512 249 -114 37
-135 55 -142 122 -5 52 14 102 38 102 6 0 41 -15 78 -34z m1435 -316 c19 -23
40 -61 47 -86 18 -64 8 -225 -18 -289 -24 -61 -90 -175 -101 -175 -4 0 -27 42
-51 93 -23 50 -62 133 -86 182 -25 50 -47 106 -50 126 -6 35 -4 38 41 69 26
18 69 52 96 76 27 24 58 44 69 44 10 0 34 -18 53 -40z m-1620 -82 c102 -115
323 -395 387 -491 81 -119 85 -138 66 -267 -16 -116 -163 -1002 -171 -1037 -4
-18 -12 -23 -35 -23 -20 0 -30 5 -30 14 0 30 82 678 105 832 14 89 29 203 35
254 l10 92 -57 71 c-77 94 -229 270 -381 441 -69 78 -119 143 -114 148 8 8 87
35 109 37 6 1 40 -32 76 -71z m397 35 c148 -55 434 -223 481 -283 37 -46 64
-110 47 -110 -7 0 -25 18 -41 40 -39 55 -131 113 -373 233 -280 139 -257 126
-244 143 14 16 34 12 130 -23z m1354 -26 c9 -24 21 -72 27 -105 20 -114 -32
-270 -118 -354 l-45 -43 31 56 c40 73 64 143 86 257 17 85 17 99 3 163 -17 78
-9 91 16 26z m-348 -502 l26 -55 -33 -38 c-50 -58 -941 -997 -949 -1000 -16
-6 -42 53 -42 92 1 76 62 294 97 345 28 42 72 103 299 426 43 61 91 136 107
167 33 65 10 56 242 93 78 12 161 23 185 24 43 1 43 1 68 -54z m-1578 -26 c45
-39 80 -74 77 -79 -10 -17 -96 -24 -109 -9 -11 12 -66 140 -66 154 0 14 22 -1
98 -66z m1701 -253 l29 -69 -82 -68 c-131 -110 -224 -229 -309 -396 -62 -122
-91 -201 -105 -288 -14 -78 -26 -338 -17 -364 8 -25 35 -27 75 -6 29 15 30 18
30 86 0 87 15 83 24 -8 21 -205 103 -396 242 -559 59 -69 169 -152 284 -213
l95 -51 -940 0 c-517 0 -1093 3 -1279 7 l-339 6 50 23 c99 43 211 124 295 213
81 85 168 203 187 254 5 14 15 28 21 32 6 4 66 2 133 -4 67 -7 149 -14 182
-17 l60 -5 -3 -60 -4 -59 115 0 c140 0 177 10 177 51 0 30 -21 48 -62 50 -42
3 96 17 177 18 100 1 125 15 125 70 0 49 -27 84 -77 99 -71 21 -75 28 -56 96
17 57 16 61 -6 148 l-23 89 175 182 c95 100 247 261 337 357 363 389 443 471
452 462 4 -4 21 -39 37 -76z m-2889 67 c-8 -3 -62 -23 -119 -44 -57 -21 -107
-37 -111 -34 -4 3 -13 19 -20 36 -19 44 -6 49 140 48 69 0 118 -3 110 -6z
m1416 -36 l27 -23 -22 -119 c-23 -121 -42 -175 -64 -175 -11 0 -141 278 -139
297 1 8 111 39 149 42 12 0 34 -9 49 -22z m-916 -80 c176 -53 343 -139 307
-158 -10 -6 -41 5 -98 35 -163 86 -326 121 -524 113 -121 -5 -196 -22 -308
-70 -41 -17 -50 -18 -57 -6 -14 22 6 36 88 63 163 53 178 56 347 52 136 -3
173 -8 245 -29z m693 -203 c108 -256 155 -381 161 -425 2 -19 8 -53 11 -76 10
-56 -11 -68 -111 -58 l-73 7 -12 36 c-41 127 -175 366 -243 431 -34 33 -47 61
-28 61 13 0 114 -109 151 -163 17 -26 48 -82 68 -125 37 -80 86 -142 111 -142
27 0 7 104 -38 198 -44 93 -83 151 -166 249 -30 35 -54 71 -54 80 0 21 109
145 124 140 6 -2 50 -98 99 -213z m1777 62 c0 -8 -19 -29 -42 -47 -203 -155
-317 -346 -372 -624 -22 -110 -38 -136 -44 -70 -7 77 70 303 150 440 63 107
123 180 206 251 75 64 102 77 102 50z m-2775 -334 c0 -159 -4 -294 -8 -299
-12 -11 -33 21 -58 86 -28 75 -120 474 -111 483 7 7 149 27 167 23 6 -1 10
-107 10 -293z m169 287 c42 -6 82 -16 89 -23 24 -19 -76 -436 -123 -514 -21
-34 -51 -54 -66 -44 -7 5 -9 110 -6 300 4 235 7 292 18 292 7 0 47 -5 88 -11z
m3101 -144 c1 -82 -2 -215 -5 -295 -4 -120 -8 -145 -20 -145 -8 0 -25 20 -37
45 -42 88 -141 506 -124 523 11 11 111 26 156 23 l30 -1 0 -150z m260 113 c1
-1 -15 -61 -36 -133 -21 -71 -53 -186 -70 -255 -34 -137 -52 -180 -74 -180
-13 0 -15 42 -15 298 0 164 2 301 5 304 5 5 183 -27 190 -34z m-3732 -158 c48
-175 49 -180 37 -180 -5 0 -10 4 -10 9 0 5 -29 72 -65 148 l-64 138 21 18 c32
27 42 10 81 -133z m630 111 c26 -11 47 -27 47 -34 0 -18 -44 -79 -133 -184
-65 -78 -87 -96 -87 -73 0 16 49 240 62 283 13 44 25 45 111 8z m2614 -61 c37
-149 29 -159 -33 -36 -29 59 -51 113 -48 118 3 5 18 8 32 6 25 -3 29 -10 49
-88z m669 24 l54 -35 -118 -137 c-64 -75 -130 -152 -145 -171 -15 -18 -30 -32
-32 -29 -7 6 88 347 116 416 9 22 10 22 40 6 17 -8 55 -31 85 -50z m-4082 -41
c13 -21 27 -49 31 -63 8 -25 8 -25 -14 -6 -31 28 -64 84 -56 96 9 15 13 13 39
-27z m3258 -30 c43 -76 31 -87 -32 -27 -38 37 -51 56 -47 68 13 33 48 14 79
-41z m-3296 -65 c121 -127 292 -368 261 -368 -21 0 -326 124 -414 169 -46 23
-83 47 -83 55 0 30 142 206 165 206 7 0 39 -28 71 -62z m3286 -76 c118 -121
228 -260 228 -288 0 -10 -11 -10 -52 3 -85 24 -286 102 -375 144 -70 33 -83
43 -83 64 0 26 127 205 146 205 6 0 67 -58 136 -128z m963 112 c25 -16 171
-192 164 -197 -32 -23 -568 -241 -575 -235 -6 7 370 445 384 448 1 0 14 -7 27
-16z m-3198 -26 c49 -53 113 -139 113 -152 0 -16 -300 -162 -360 -175 -62 -14
-133 -14 -128 0 8 25 314 359 329 359 8 0 29 -15 46 -32z m172 -271 c12 -24
21 -48 21 -54 0 -11 -216 -28 -276 -21 -28 3 -18 10 90 60 66 32 126 58 133
58 6 0 21 -19 32 -43z m-1290 -46 c330 -141 365 -160 324 -176 -31 -12 -593
-19 -593 -8 0 22 32 170 46 216 9 26 20 47 26 47 6 0 95 -36 197 -79z m3084
55 c34 -23 281 -125 388 -161 116 -40 144 -54 132 -66 -11 -11 -316 -28 -500
-29 l-123 0 0 39 c0 22 6 70 14 108 27 125 40 141 89 109z m1445 -60 c13 -39
24 -95 25 -125 l2 -56 -130 -6 c-71 -4 -212 -7 -312 -8 -177 -1 -183 0 -183
19 0 12 10 24 23 30 12 5 112 46 222 91 110 45 220 92 245 105 69 36 81 30
108 -50z m-3196 -126 c3 -16 0 -34 -6 -40 -11 -11 -397 -14 -544 -4 -79 6 -92
9 -92 25 0 10 5 21 12 25 19 12 179 21 409 22 l217 2 4 -30z m-996 -134 c18
-14 15 -17 -51 -47 -80 -36 -437 -174 -476 -184 -24 -6 -26 -3 -42 57 -21 78
-36 149 -37 165 0 15 58 19 356 21 187 2 234 -1 250 -12z m3282 -4 c5 -15 -56
-43 -303 -136 -220 -84 -282 -103 -295 -90 -11 11 -37 129 -42 189 l-3 40 95
6 c52 3 196 5 319 5 172 -1 225 -4 229 -14z m929 12 c20 -6 22 -11 17 -48 -12
-84 -34 -180 -43 -189 -16 -16 -251 70 -466 171 -116 55 -118 57 -85 63 46 8
548 10 577 3z m-2500 -29 c8 -22 -6 -33 -17 -15 -13 20 -12 30 0 30 6 0 13 -7
17 -15z m-713 -37 c-20 -114 -45 -168 -76 -168 -57 0 -356 107 -483 173 l-50
26 307 1 308 0 -6 -32z m2316 -31 c0 -19 -45 -79 -184 -248 -67 -80 -138 -167
-159 -192 -21 -26 -43 -47 -50 -47 -31 0 -214 234 -205 262 2 6 56 28 119 48
62 21 168 61 234 90 253 111 245 108 245 87z m425 -54 c72 -31 193 -78 270
-104 98 -33 141 -52 143 -64 6 -28 -89 -173 -145 -221 -28 -24 -54 -44 -57
-44 -3 0 -49 55 -102 121 -53 67 -126 156 -163 198 -90 103 -131 156 -131 171
0 18 37 6 185 -57z m-3685 42 c0 -26 -60 -105 -167 -222 -70 -77 -149 -164
-174 -194 l-46 -54 -23 20 c-53 47 -160 205 -160 237 0 10 45 32 138 66 75 29
196 74 267 102 121 46 165 58 165 45z m398 -31 c48 -20 89 -38 92 -41 8 -8
-111 7 -150 19 -40 12 -72 37 -64 49 9 15 33 10 122 -27z m770 -58 c28 -40 52
-76 52 -80 0 -9 -138 -8 -143 2 -6 8 26 152 33 152 3 0 29 -33 58 -74z m2180
-112 c2 -98 0 -244 -3 -323 l-7 -143 -52 6 c-28 4 -68 12 -90 17 -38 10 -38
10 -32 52 13 83 160 577 170 574 7 -2 12 -68 14 -183z m141 1 c22 -88 56 -212
76 -275 45 -148 45 -157 -2 -169 -21 -5 -60 -11 -88 -13 l-50 -3 -3 295 c-4
407 3 423 67 165z m-3404 -153 c0 -165 -2 -303 -5 -305 -3 -3 -30 -1 -60 4
-30 5 -70 12 -87 15 -22 3 -33 11 -33 21 0 18 97 371 137 496 42 134 48 105
48 -231z m144 210 c11 -37 29 -105 41 -152 12 -47 37 -141 56 -208 20 -68 34
-126 32 -128 -9 -8 -113 -24 -161 -24 l-50 0 5 278 c5 285 12 338 43 312 7 -6
22 -41 34 -78z m356 -20 c68 -37 190 -137 193 -157 3 -23 -104 -158 -122 -152
-10 3 -66 68 -225 262 l-64 78 89 -5 c66 -3 99 -10 129 -26z m-629 -19 c-3
-10 -31 -108 -62 -218 -31 -110 -59 -204 -63 -208 -10 -10 -151 83 -151 99 0
14 46 75 175 233 88 107 112 129 101 94z m497 -153 c76 -93 137 -173 137 -177
0 -19 -162 -104 -174 -92 -3 3 -29 95 -56 205 -28 109 -53 207 -56 217 -12 41
21 7 149 -153z m3157 118 c19 -28 79 -110 133 -181 54 -71 96 -131 95 -132 -7
-7 -154 -85 -160 -85 -14 0 -100 301 -114 403 -3 26 -2 47 2 47 5 0 25 -23 44
-52z m-2780 23 c19 -3 35 -11 37 -16 5 -15 -35 -75 -49 -75 -15 0 -121 85
-127 101 -3 11 62 6 139 -10z m2364 -28 c-5 -34 -59 -257 -85 -355 l-10 -38
-32 14 c-18 7 -57 28 -88 47 l-56 34 84 100 c46 55 104 130 130 168 26 37 50
67 55 67 5 0 6 -17 2 -37z"/>
</g>
</svg>
